<?xml version="1.0" encoding="iso-8859-1"?>
<!-- Generator: Adobe Illustrator 22.0.1, SVG Export Plug-In . SVG Version: 6.00 Build 0)  -->
<svg version="1.1" id="Layer_7" xmlns="http://www.w3.org/2000/svg" xmlns:xlink="http://www.w3.org/1999/xlink" x="0px" y="0px"
	 viewBox="0 0 512 512" style="enable-background:new 0 0 512 512;" xml:space="preserve">
<g>
	<path style="fill:#9EC853;" d="M0,255.999C0,114.609,114.613,0,256.002,0C397.387,0,512,114.609,512,255.999
		S397.387,512,256.002,512C114.613,512,0,397.389,0,255.999z"/>
	<g>
		<defs>
			<path id="SVGID_85_" d="M0,255.996C0,114.607,114.613,0,256.002,0C397.387,0,512,114.607,512,255.996
				C512,397.389,397.387,512,256.002,512C114.613,512,0,397.389,0,255.996z"/>
		</defs>
		<clipPath id="SVGID_2_">
			<use xlink:href="#SVGID_85_"  style="overflow:visible;"/>
		</clipPath>
		<polygon style="clip-path:url(#SVGID_2_);fill:#3D2A3D;" points="406,496 116,496 137.481,206 373.778,206 		"/>
		<g style="clip-path:url(#SVGID_2_);">
			<polygon style="fill:#3D2A3D;" points="424.17,378.154 392.56,378.222 377.012,496.793 456,479.688 			"/>
			<g>
				<g>
					
						<ellipse transform="matrix(0.8911 -0.4537 0.4537 0.8911 -23.4735 162.3461)" style="fill:#3D2A3D;" cx="326.606" cy="130.094" rx="24.949" ry="29.107"/>
					
						<ellipse transform="matrix(0.8911 -0.4537 0.4537 0.8911 -36.4607 156.4247)" style="fill:#3D2A3D;" cx="307.772" cy="154.2" rx="24.949" ry="29.107"/>
				</g>
				<g>
					
						<ellipse transform="matrix(0.8911 -0.4537 0.4537 0.8911 -34.1463 179.7424)" style="fill:#3D2A3D;" cx="357.525" cy="161.035" rx="24.065" ry="28.076"/>
					
						<ellipse transform="matrix(0.8911 -0.4537 0.4537 0.8911 -46.6732 174.0309)" style="fill:#3D2A3D;" cx="339.359" cy="184.286" rx="24.065" ry="28.076"/>
				</g>
				<g>
					
						<ellipse transform="matrix(0.8911 -0.4537 0.4537 0.8911 -50.0924 194.1688)" style="fill:#3D2A3D;" cx="379.618" cy="201.481" rx="23.18" ry="27.044"/>
					
						<ellipse transform="matrix(0.8911 -0.4537 0.4537 0.8911 -62.159 188.6672)" style="fill:#3D2A3D;" cx="362.119" cy="223.878" rx="23.18" ry="27.044"/>
				</g>
				<g>
					
						<ellipse transform="matrix(0.8911 -0.4537 0.4537 0.8911 -68.8042 205.7264)" style="fill:#3D2A3D;" cx="394.349" cy="246.257" rx="22.296" ry="26.012"/>
					
						<ellipse transform="matrix(0.8911 -0.4537 0.4537 0.8911 -80.4104 200.4347)" style="fill:#3D2A3D;" cx="377.518" cy="267.799" rx="22.296" ry="26.012"/>
				</g>
				<g>
					
						<ellipse transform="matrix(0.8911 -0.4537 0.4537 0.8911 -87.774 214.5163)" style="fill:#3D2A3D;" cx="403.183" cy="290.187" rx="21.412" ry="24.98"/>
					
						<ellipse transform="matrix(0.8911 -0.4537 0.4537 0.8911 -98.9198 209.4346)" style="fill:#3D2A3D;" cx="387.02" cy="310.875" rx="21.412" ry="24.98"/>
				</g>
				<g>
					
						<ellipse transform="matrix(0.8911 -0.4537 0.4537 0.8911 -104.4942 220.6397)" style="fill:#3D2A3D;" cx="407.585" cy="328.095" rx="20.527" ry="23.949"/>
					
						<ellipse transform="matrix(0.8911 -0.4537 0.4537 0.8911 -115.1797 215.7678)" style="fill:#3D2A3D;" cx="392.089" cy="347.928" rx="20.527" ry="23.949"/>
				</g>
				<g>
					
						<ellipse transform="matrix(0.8911 -0.4537 0.4537 0.8911 -116.4574 224.1976)" style="fill:#3D2A3D;" cx="409.018" cy="354.806" rx="19.643" ry="22.917"/>
					
						<ellipse transform="matrix(0.8911 -0.4537 0.4537 0.8911 -126.6825 219.5356)" style="fill:#3D2A3D;" cx="394.19" cy="373.785" rx="19.643" ry="22.917"/>
				</g>
				<g>
					
						<ellipse transform="matrix(0.8911 -0.4537 0.4537 0.8911 -121.1558 225.2912)" style="fill:#3D2A3D;" cx="408.948" cy="365.145" rx="18.759" ry="21.885"/>
					
						<ellipse transform="matrix(0.8911 -0.4537 0.4537 0.8911 -130.9206 220.839)" style="fill:#3D2A3D;" cx="394.787" cy="383.269" rx="18.759" ry="21.885"/>
				</g>
			</g>
		</g>
		<g style="clip-path:url(#SVGID_2_);">
			<polygon style="fill:#3D2A3D;" points="98.866,380.32 130.449,379.012 151.145,496.793 71.487,483.144 			"/>
			<g>
				<g>
					
						<ellipse transform="matrix(0.4145 -0.9101 0.9101 0.4145 -8.077 243.9395)" style="fill:#3D2A3D;" cx="185.535" cy="128.247" rx="29.107" ry="24.949"/>
					
						<ellipse transform="matrix(0.4145 -0.9101 0.9101 0.4145 -17.6155 275.6397)" style="fill:#3D2A3D;" cx="205.401" cy="151.509" rx="29.107" ry="24.949"/>
				</g>
				<g>
					
						<ellipse transform="matrix(0.4145 -0.9101 0.9101 0.4145 -54.7317 235.9422)" style="fill:#3D2A3D;" cx="155.993" cy="160.505" rx="28.076" ry="24.065"/>
					
						<ellipse transform="matrix(0.4145 -0.9101 0.9101 0.4145 -63.9321 266.5188)" style="fill:#3D2A3D;" cx="175.155" cy="182.943" rx="28.076" ry="24.065"/>
				</g>
				<g>
					
						<ellipse transform="matrix(0.4145 -0.9101 0.9101 0.4145 -104.2732 241.6814)" style="fill:#3D2A3D;" cx="135.682" cy="201.875" rx="27.044" ry="23.18"/>
					
						<ellipse transform="matrix(0.4145 -0.9101 0.9101 0.4145 -113.1355 271.1343)" style="fill:#3D2A3D;" cx="154.14" cy="223.489" rx="27.044" ry="23.18"/>
				</g>
				<g>
					
						<ellipse transform="matrix(0.4145 -0.9101 0.9101 0.4145 -153.0425 256.6302)" style="fill:#3D2A3D;" cx="122.915" cy="247.25" rx="26.012" ry="22.296"/>
					
						<ellipse transform="matrix(0.4145 -0.9101 0.9101 0.4145 -161.5667 284.9595)" style="fill:#3D2A3D;" cx="140.668" cy="268.039" rx="26.012" ry="22.296"/>
				</g>
				<g>
					
						<ellipse transform="matrix(0.4145 -0.9101 0.9101 0.4145 -197.3809 276.2618)" style="fill:#3D2A3D;" cx="116.002" cy="291.522" rx="24.98" ry="21.412"/>
					
						<ellipse transform="matrix(0.4145 -0.9101 0.9101 0.4145 -205.567 303.4675)" style="fill:#3D2A3D;" cx="133.051" cy="311.487" rx="24.98" ry="21.412"/>
				</g>
				<g>
					
						<ellipse transform="matrix(0.4145 -0.9101 0.9101 0.4145 -233.6295 296.0495)" style="fill:#3D2A3D;" cx="113.255" cy="329.586" rx="23.949" ry="20.527"/>
					
						<ellipse transform="matrix(0.4145 -0.9101 0.9101 0.4145 -241.4775 322.1315)" style="fill:#3D2A3D;" cx="129.6" cy="348.726" rx="23.949" ry="20.527"/>
				</g>
				<g>
					
						<ellipse transform="matrix(0.4145 -0.9101 0.9101 0.4145 -258.1295 311.4665)" style="fill:#3D2A3D;" cx="112.986" cy="356.334" rx="22.917" ry="19.643"/>
					
						<ellipse transform="matrix(0.4145 -0.9101 0.9101 0.4145 -265.6393 336.4249)" style="fill:#3D2A3D;" cx="128.627" cy="374.65" rx="22.917" ry="19.643"/>
				</g>
				<g>
					
						<ellipse transform="matrix(0.4145 -0.9101 0.9101 0.4145 -267.2219 317.986)" style="fill:#3D2A3D;" cx="113.507" cy="366.66" rx="21.885" ry="18.759"/>
					
						<ellipse transform="matrix(0.4145 -0.9101 0.9101 0.4145 -274.3937 341.8207)" style="fill:#3D2A3D;" cx="128.443" cy="384.151" rx="21.885" ry="18.759"/>
				</g>
			</g>
		</g>
		<g style="clip-path:url(#SVGID_2_);">
			<path style="fill:#E38A5B;" d="M186.411,238.691c7.2,17.052,3.28,33.624-8.756,37.017c-12.038,3.393-27.628-7.679-34.828-24.728
				c-7.2-17.052-3.28-33.625,8.756-37.018S179.213,221.642,186.411,238.691z"/>
			<path style="fill:#E38A5B;" d="M332.973,238.691c-7.2,17.052-3.277,33.624,8.758,37.017c12.036,3.393,27.628-7.679,34.825-24.728
				c7.202-17.052,3.282-33.625-8.756-37.018C355.767,210.568,340.173,221.642,332.973,238.691z"/>
		</g>
		<path style="clip-path:url(#SVGID_2_);fill:#E38A5B;" d="M463.386,545.884l-0.058-0.924c0-56.196-21.036-110.643-46.722-121.011
			l-109.396-44.072c-25.688-10.359-67.755-10.4-93.448-0.123l-110.961,44.334c-25.708,10.292-46.744,64.677-46.744,120.873
			L56,545.884H463.386z"/>
		<path style="clip-path:url(#SVGID_2_);fill:#E38A5B;" d="M306.019,382.581c0,24.124-19.555,43.679-43.678,43.679h-5.297
			c-24.123,0-43.678-19.555-43.678-43.679V270.074c0-24.123,19.555-43.679,43.678-43.679h5.297
			c24.123,0,43.678,19.556,43.678,43.679V382.581z"/>
		<g style="clip-path:url(#SVGID_2_);">
			<g>
				<path style="fill:#F5B68C;" d="M353.695,246.162c0,51.916-42.086,94.002-94.002,94.002h0c-51.916,0-94.002-42.086-94.002-94.002
					v-78.188c0-51.916,42.086-94.002,94.002-94.002h0.001c51.916,0,94.002,42.086,94.002,94.002V246.162z"/>
			</g>
		</g>
		<g style="clip-path:url(#SVGID_2_);">
			<circle style="fill:#3D2A3D;" cx="223.651" cy="238.697" r="10.87"/>
			<circle style="fill:#3D2A3D;" cx="295.735" cy="238.697" r="10.87"/>
		</g>
		<g style="clip-path:url(#SVGID_2_);">
			<path style="fill:#3D2A3D;" d="M259.693,69.792c-60.945,0-110.351,53.548-110.351,119.607c0,21.938,5.453,42.491,14.964,60.168
				l3.618-30.684c4.189-35.527,34.301-62.299,70.074-62.3l43.378-0.002c35.77-0.002,65.883,26.762,70.079,62.286l3.626,30.699
				c9.509-17.675,14.962-38.228,14.962-60.166C370.043,123.34,320.637,69.792,259.693,69.792z"/>
		</g>
		<path style="clip-path:url(#SVGID_2_);fill:#E38A5B;" d="M275.248,253.581c-0.493,8.664-7.734,15.537-16.683,15.537
			c-7.581,0-13.913-4.959-15.997-11.757c-0.466,1.594-0.803,3.252-0.803,4.989c0,9.908,8.042,17.946,17.932,17.946
			c9.916,0,17.927-8.039,17.927-17.946C277.622,259.14,276.724,256.185,275.248,253.581z"/>
		<path style="clip-path:url(#SVGID_2_);fill:#966796;" d="M463.328,544.961c0-56.196-21.036-110.643-46.722-121.011l-86.98-35.042
			c-12.093,26.56-38.847,45.035-69.934,45.035c-30.943,0-57.595-18.303-69.766-44.665l-87.125,34.81
			c-25.708,10.292-46.744,64.677-46.744,120.873L56,545.884h407.386L463.328,544.961z"/>
		<g style="clip-path:url(#SVGID_2_);">
			<ellipse style="fill:#EB987F;" cx="320.054" cy="266.029" rx="21.949" ry="16.462"/>
			<ellipse style="fill:#EB987F;" cx="199.332" cy="266.029" rx="21.949" ry="16.462"/>
		</g>
		<g style="clip-path:url(#SVGID_2_);">
			<path style="fill:#FFFFFF;" d="M284.07,289.587c-12.263,11.545-33.299,11.545-45.564,0c-8.647-8.141-21.709,4.873-13.037,13.038
				c19.688,18.533,51.952,18.533,71.638,0C305.782,294.46,292.719,281.446,284.07,289.587L284.07,289.587z"/>
		</g>
		<g style="clip-path:url(#SVGID_2_);">
			<g>
				<path style="fill:#735A73;" d="M208.283,221.286c5.69-6.259,13.699-9.05,22.034-9.183c4.145-0.066,4.152-6.5,0-6.435
					c-9.947,0.158-19.784,3.588-26.585,11.067C200.949,219.798,205.486,224.363,208.283,221.286L208.283,221.286z"/>
			</g>
			<g>
				<path style="fill:#735A73;" d="M311.738,216.736c-6.8-7.479-16.638-10.909-26.583-11.067c-4.151-0.066-4.146,6.369,0,6.435
					c8.334,0.133,16.342,2.923,22.033,9.183C309.984,224.363,314.522,219.798,311.738,216.736L311.738,216.736z"/>
			</g>
		</g>
		<g style="clip-path:url(#SVGID_2_);">
			<g>
				
					<ellipse transform="matrix(0.4066 -0.9136 0.9136 0.4066 36.1425 272.2036)" style="fill:#3D2A3D;" cx="227.616" cy="108.279" rx="18.943" ry="22.1"/>
				
					<ellipse transform="matrix(0.4066 -0.9136 0.9136 0.4066 60.4649 279.1798)" style="fill:#3D2A3D;" cx="245.147" cy="93.044" rx="18.943" ry="22.1"/>
			</g>
			<g>
				
					<ellipse transform="matrix(0.4066 -0.9136 0.9136 0.4066 15.0448 296.8365)" style="fill:#3D2A3D;" cx="236.029" cy="136.837" rx="18.271" ry="21.317"/>
				
					<ellipse transform="matrix(0.4066 -0.9136 0.9136 0.4066 38.505 303.5655)" style="fill:#3D2A3D;" cx="252.94" cy="122.141" rx="18.271" ry="21.317"/>
			</g>
			<g>
				
					<ellipse transform="matrix(0.4066 -0.9136 0.9136 0.4066 5.5575 329.7564)" style="fill:#3D2A3D;" cx="256.628" cy="160.6" rx="17.6" ry="20.533"/>
				
					<ellipse transform="matrix(0.4066 -0.9136 0.9136 0.4066 28.1556 336.2381)" style="fill:#3D2A3D;" cx="272.916" cy="146.445" rx="17.6" ry="20.533"/>
			</g>
			<g>
				
					<ellipse transform="matrix(0.4066 -0.9136 0.9136 0.4066 6.6241 366.7024)" style="fill:#3D2A3D;" cx="285.602" cy="178.252" rx="16.928" ry="19.75"/>
				
					<ellipse transform="matrix(0.4066 -0.9136 0.9136 0.4066 28.36 372.9368)" style="fill:#3D2A3D;" cx="301.27" cy="164.637" rx="16.928" ry="19.75"/>
			</g>
			<g>
				
					<ellipse transform="matrix(0.4066 -0.9136 0.9136 0.4066 17.1882 403.4136)" style="fill:#3D2A3D;" cx="319.145" cy="188.475" rx="16.257" ry="18.966"/>
				
					<ellipse transform="matrix(0.4066 -0.9136 0.9136 0.4066 38.062 409.4007)" style="fill:#3D2A3D;" cx="334.191" cy="175.4" rx="16.257" ry="18.966"/>
			</g>
			<g>
				
					<ellipse transform="matrix(0.4066 -0.9136 0.9136 0.4066 36.1933 435.6292)" style="fill:#3D2A3D;" cx="353.447" cy="189.953" rx="15.586" ry="18.183"/>
				
					<ellipse transform="matrix(0.4066 -0.9136 0.9136 0.4066 56.205 441.369)" style="fill:#3D2A3D;" cx="367.872" cy="177.417" rx="15.586" ry="18.183"/>
			</g>
			<g>
				
					<ellipse transform="matrix(0.4066 -0.9136 0.9136 0.4066 62.583 459.0882)" style="fill:#3D2A3D;" cx="384.701" cy="181.367" rx="14.914" ry="17.4"/>
			</g>
		</g>
	</g>
</g>
</svg>
