<?xml version="1.0" encoding="iso-8859-1"?>
<!-- Generator: Adobe Illustrator 22.0.1, SVG Export Plug-In . SVG Version: 6.00 Build 0)  -->
<svg version="1.1" id="Layer_7" xmlns="http://www.w3.org/2000/svg" xmlns:xlink="http://www.w3.org/1999/xlink" x="0px" y="0px"
	 viewBox="0 0 512 512" style="enable-background:new 0 0 512 512;" xml:space="preserve">
<g>
	<path style="fill:#FFC34A;" d="M0,255.997C0,114.607,114.613,0,256.001,0C397.387,0,512,114.607,512,255.997
		C512,397.389,397.387,512,256.001,512C114.613,512,0,397.389,0,255.997z"/>
	<g>
		<defs>
			<path id="SVGID_87_" d="M0,255.996C0,114.607,114.613,0,256.002,0C397.387,0,512,114.607,512,255.996
				C512,397.389,397.387,512,256.002,512C114.613,512,0,397.389,0,255.996z"/>
		</defs>
		<clipPath id="SVGID_2_">
			<use xlink:href="#SVGID_87_"  style="overflow:visible;"/>
		</clipPath>
		<g style="clip-path:url(#SVGID_2_);">
			<path style="fill:#BD6442;" d="M182.718,238.691c7.2,17.052,3.28,33.624-8.756,37.017c-12.038,3.393-27.628-7.679-34.828-24.728
				c-7.2-17.052-3.28-33.625,8.756-37.018S175.521,221.642,182.718,238.691z"/>
			<path style="fill:#BD6442;" d="M329.28,238.691c-7.2,17.052-3.277,33.624,8.758,37.017c12.036,3.393,27.628-7.679,34.825-24.728
				c7.202-17.052,3.282-33.625-8.756-37.018C352.074,210.568,336.48,221.642,329.28,238.691z"/>
		</g>
		<path style="clip-path:url(#SVGID_2_);fill:#BD6442;" d="M459.693,545.884l-0.058-0.924c0-56.196-21.036-110.643-46.722-121.011
			l-109.396-44.072c-25.688-10.359-67.755-10.4-93.448-0.123L99.108,424.088C73.4,434.38,52.364,488.764,52.364,544.961
			l-0.057,0.924H459.693z"/>
		<path style="clip-path:url(#SVGID_2_);fill:#BD6442;" d="M302.326,382.581c0,24.124-19.555,43.679-43.678,43.679h-5.297
			c-24.123,0-43.678-19.555-43.678-43.679V270.074c0-24.123,19.555-43.679,43.678-43.679h5.297
			c24.123,0,43.678,19.556,43.678,43.679V382.581z"/>
		<g style="clip-path:url(#SVGID_2_);">
			<g>
				<path style="fill:#D67F5E;" d="M350.002,246.162c0,51.916-42.086,94.002-94.002,94.002h0c-51.916,0-94.002-42.086-94.002-94.002
					v-78.188c0-51.916,42.086-94.002,94.002-94.002h0.001c51.916,0,94.002,42.086,94.002,94.002V246.162z"/>
			</g>
		</g>
		<g style="clip-path:url(#SVGID_2_);">
			<circle style="fill:#3D2A3D;" cx="219.958" cy="238.697" r="10.87"/>
			<circle style="fill:#3D2A3D;" cx="292.042" cy="238.697" r="10.87"/>
		</g>
		<g style="clip-path:url(#SVGID_2_);">
			<path style="fill:#3D2A3D;" d="M256,69.792c-60.945,0-110.351,53.548-110.351,119.607c0,21.938,5.453,42.491,14.964,60.168
				l3.618-30.684c4.189-35.527,34.301-62.299,70.074-62.3l43.378-0.002c35.77-0.002,65.883,26.762,70.079,62.286l3.626,30.699
				c9.508-17.675,14.962-38.228,14.962-60.166C366.35,123.34,316.944,69.792,256,69.792z"/>
		</g>
		<path style="clip-path:url(#SVGID_2_);fill:#BD6442;" d="M271.555,253.581c-0.493,8.664-7.734,15.537-16.683,15.537
			c-7.581,0-13.913-4.959-15.997-11.757c-0.466,1.594-0.803,3.252-0.803,4.989c0,9.908,8.042,17.946,17.932,17.946
			c9.915,0,17.927-8.039,17.927-17.946C273.929,259.14,273.031,256.185,271.555,253.581z"/>
		<path style="clip-path:url(#SVGID_2_);fill:#D12C2C;" d="M459.635,544.961c0-56.196-21.036-110.643-46.722-121.011l-86.98-35.042
			c-12.093,26.56-38.847,45.035-69.934,45.035c-30.943,0-57.595-18.303-69.766-44.665l-87.125,34.81
			C73.4,434.38,52.364,488.764,52.364,544.961l-0.057,0.924h407.386L459.635,544.961z"/>
		<g style="clip-path:url(#SVGID_2_);">
			<ellipse style="fill:#BD6442;" cx="316.361" cy="266.029" rx="21.949" ry="16.462"/>
			<ellipse style="fill:#BD6442;" cx="195.639" cy="266.029" rx="21.949" ry="16.462"/>
		</g>
		<g style="clip-path:url(#SVGID_2_);">
			<path style="fill:#FFFFFF;" d="M278.782,289.587c-12.263,11.545-33.299,11.545-45.564,0c-8.647-8.141-21.709,4.873-13.037,13.038
				c19.688,18.533,51.952,18.533,71.638,0C300.493,294.46,287.431,281.446,278.782,289.587L278.782,289.587z"/>
		</g>
		<g style="clip-path:url(#SVGID_2_);">
			<g>
				<g>
					
						<ellipse transform="matrix(0.4066 -0.9136 0.9136 0.4066 17.7021 225.948)" style="fill:#3D2A3D;" cx="182.787" cy="99.347" rx="18.943" ry="22.1"/>
					
						<ellipse transform="matrix(0.4066 -0.9136 0.9136 0.4066 42.0244 232.9242)" style="fill:#3D2A3D;" cx="200.319" cy="84.111" rx="18.943" ry="22.1"/>
				</g>
				<g>
					
						<ellipse transform="matrix(0.4066 -0.9136 0.9136 0.4066 -3.3957 250.5809)" style="fill:#3D2A3D;" cx="191.201" cy="127.904" rx="18.271" ry="21.317"/>
					
						<ellipse transform="matrix(0.4066 -0.9136 0.9136 0.4066 20.0646 257.3099)" style="fill:#3D2A3D;" cx="208.111" cy="113.209" rx="18.271" ry="21.317"/>
				</g>
				<g>
					
						<ellipse transform="matrix(0.4066 -0.9136 0.9136 0.4066 -12.883 283.5008)" style="fill:#3D2A3D;" cx="211.8" cy="151.668" rx="17.6" ry="20.533"/>
					
						<ellipse transform="matrix(0.4066 -0.9136 0.9136 0.4066 9.7151 289.9825)" style="fill:#3D2A3D;" cx="228.088" cy="137.512" rx="17.6" ry="20.533"/>
				</g>
				<g>
					
						<ellipse transform="matrix(0.4066 -0.9136 0.9136 0.4066 -11.8164 320.4468)" style="fill:#3D2A3D;" cx="240.774" cy="169.32" rx="16.928" ry="19.75"/>
					
						<ellipse transform="matrix(0.4066 -0.9136 0.9136 0.4066 9.9196 326.6812)" style="fill:#3D2A3D;" cx="256.441" cy="155.704" rx="16.928" ry="19.75"/>
				</g>
				<g>
					
						<ellipse transform="matrix(0.4066 -0.9136 0.9136 0.4066 -1.2523 357.158)" style="fill:#3D2A3D;" cx="274.317" cy="179.543" rx="16.257" ry="18.966"/>
					
						<ellipse transform="matrix(0.4066 -0.9136 0.9136 0.4066 19.6215 363.1451)" style="fill:#3D2A3D;" cx="289.363" cy="166.468" rx="16.257" ry="18.966"/>
				</g>
				<g>
					
						<ellipse transform="matrix(0.4066 -0.9136 0.9136 0.4066 17.7528 389.3735)" style="fill:#3D2A3D;" cx="308.619" cy="181.02" rx="15.586" ry="18.183"/>
					
						<ellipse transform="matrix(0.4066 -0.9136 0.9136 0.4066 37.7645 395.1133)" style="fill:#3D2A3D;" cx="323.043" cy="168.485" rx="15.586" ry="18.183"/>
				</g>
			</g>
			<g>
				<g>
					
						<ellipse transform="matrix(0.9136 -0.4066 0.4066 0.9136 -11.9525 142.4412)" style="fill:#3D2A3D;" cx="329.213" cy="99.347" rx="22.1" ry="18.943"/>
					
						<ellipse transform="matrix(0.9136 -0.4066 0.4066 0.9136 -7.2723 133.9966)" style="fill:#3D2A3D;" cx="311.681" cy="84.111" rx="22.1" ry="18.943"/>
				</g>
				<g>
					
						<ellipse transform="matrix(0.9136 -0.4066 0.4066 0.9136 -24.2909 141.4874)" style="fill:#3D2A3D;" cx="320.799" cy="127.904" rx="21.317" ry="18.271"/>
					
						<ellipse transform="matrix(0.9136 -0.4066 0.4066 0.9136 -19.7767 133.3421)" style="fill:#3D2A3D;" cx="303.889" cy="113.209" rx="21.317" ry="18.271"/>
				</g>
				<g>
					
						<ellipse transform="matrix(0.9136 -0.4066 0.4066 0.9136 -35.7327 135.1651)" style="fill:#3D2A3D;" cx="300.2" cy="151.668" rx="20.533" ry="17.6"/>
					
						<ellipse transform="matrix(0.9136 -0.4066 0.4066 0.9136 -31.3844 127.3191)" style="fill:#3D2A3D;" cx="283.912" cy="137.512" rx="20.533" ry="17.6"/>
				</g>
				<g>
					
						<ellipse transform="matrix(0.9136 -0.4066 0.4066 0.9136 -45.4132 124.909)" style="fill:#3D2A3D;" cx="271.226" cy="169.32" rx="19.75" ry="16.928"/>
					
						<ellipse transform="matrix(0.9136 -0.4066 0.4066 0.9136 -41.2308 117.3624)" style="fill:#3D2A3D;" cx="255.559" cy="155.704" rx="19.75" ry="16.928"/>
				</g>
				<g>
					
						<ellipse transform="matrix(0.9136 -0.4066 0.4066 0.9136 -52.4679 112.1538)" style="fill:#3D2A3D;" cx="237.683" cy="179.543" rx="18.966" ry="16.257"/>
					
						<ellipse transform="matrix(0.9136 -0.4066 0.4066 0.9136 -48.4514 104.9065)" style="fill:#3D2A3D;" cx="222.637" cy="166.468" rx="18.966" ry="16.257"/>
				</g>
				<g>
					
						<ellipse transform="matrix(0.9136 -0.4066 0.4066 0.9136 -56.0322 98.334)" style="fill:#3D2A3D;" cx="203.381" cy="181.02" rx="18.183" ry="15.586"/>
					
						<ellipse transform="matrix(0.9136 -0.4066 0.4066 0.9136 -52.1815 91.3861)" style="fill:#3D2A3D;" cx="188.957" cy="168.485" rx="18.183" ry="15.586"/>
				</g>
			</g>
		</g>
		<g style="clip-path:url(#SVGID_2_);">
			<g>
				<g>
					
						<ellipse transform="matrix(0.1177 -0.993 0.993 0.1177 210.659 461.6629)" style="fill:#3D2A3D;" cx="365.142" cy="112.278" rx="18.539" ry="21.629"/>
					
						<ellipse transform="matrix(0.1177 -0.993 0.993 0.1177 180.9069 466.8245)" style="fill:#3D2A3D;" cx="353.171" cy="131.602" rx="18.539" ry="21.629"/>
				</g>
				<g>
					
						<ellipse transform="matrix(0.1177 -0.993 0.993 0.1177 220.5026 424.2303)" style="fill:#3D2A3D;" cx="348.998" cy="88.022" rx="17.882" ry="20.863"/>
					
						<ellipse transform="matrix(0.1177 -0.993 0.993 0.1177 191.8051 429.2089)" style="fill:#3D2A3D;" cx="337.451" cy="106.661" rx="17.882" ry="20.863"/>
				</g>
				<g>
					
						<ellipse transform="matrix(0.1177 -0.993 0.993 0.1177 213.565 383.9379)" style="fill:#3D2A3D;" cx="322.853" cy="71.78" rx="17.225" ry="20.096"/>
					
						<ellipse transform="matrix(0.1177 -0.993 0.993 0.1177 185.9221 388.7335)" style="fill:#3D2A3D;" cx="311.731" cy="89.734" rx="17.225" ry="20.096"/>
				</g>
				<g>
					
						<ellipse transform="matrix(0.1177 -0.993 0.993 0.1177 193.1977 344.8122)" style="fill:#3D2A3D;" cx="290.651" cy="63.679" rx="16.568" ry="19.329"/>
					
						<ellipse transform="matrix(0.1177 -0.993 0.993 0.1177 166.6094 349.4249)" style="fill:#3D2A3D;" cx="279.952" cy="80.949" rx="16.568" ry="19.329"/>
				</g>
				<g>
					
						<ellipse transform="matrix(0.1177 -0.993 0.993 0.1177 162.7521 310.88)" style="fill:#3D2A3D;" cx="256.332" cy="63.847" rx="15.911" ry="18.563"/>
					
						<ellipse transform="matrix(0.1177 -0.993 0.993 0.1177 137.2184 315.3097)" style="fill:#3D2A3D;" cx="246.058" cy="80.432" rx="15.911" ry="18.563"/>
				</g>
				<g>
					
						<ellipse transform="matrix(0.1177 -0.993 0.993 0.1177 125.5796 286.1677)" style="fill:#3D2A3D;" cx="223.838" cy="72.411" rx="15.254" ry="17.796"/>
					
						<ellipse transform="matrix(0.1177 -0.993 0.993 0.1177 101.1004 290.4145)" style="fill:#3D2A3D;" cx="213.988" cy="88.31" rx="15.254" ry="17.796"/>
				</g>
				
					<ellipse transform="matrix(0.1177 -0.993 0.993 0.1177 201.6033 486.1747)" style="fill:#3D2A3D;" cx="374.409" cy="129.63" rx="18.539" ry="21.629"/>
			</g>
			<g>
				<g>
					
						<ellipse transform="matrix(0.993 -0.1177 0.1177 0.993 -12.1966 18.0694)" style="fill:#3D2A3D;" cx="146.858" cy="112.278" rx="21.629" ry="18.539"/>
					
						<ellipse transform="matrix(0.993 -0.1177 0.1177 0.993 -14.3883 19.6131)" style="fill:#3D2A3D;" cx="158.829" cy="131.602" rx="21.629" ry="18.539"/>
				</g>
				<g>
					
						<ellipse transform="matrix(0.993 -0.1177 0.1177 0.993 -9.2288 19.8013)" style="fill:#3D2A3D;" cx="163.002" cy="88.022" rx="20.863" ry="17.882"/>
					
						<ellipse transform="matrix(0.993 -0.1177 0.1177 0.993 -11.3428 21.2903)" style="fill:#3D2A3D;" cx="174.549" cy="106.661" rx="20.863" ry="17.882"/>
				</g>
				<g>
					
						<ellipse transform="matrix(0.993 -0.1177 0.1177 0.993 -7.1349 22.7662)" style="fill:#3D2A3D;" cx="189.147" cy="71.78" rx="20.096" ry="17.225"/>
					
						<ellipse transform="matrix(0.993 -0.1177 0.1177 0.993 -9.1713 24.2004)" style="fill:#3D2A3D;" cx="200.269" cy="89.734" rx="20.096" ry="17.225"/>
				</g>
				<g>
					
						<ellipse transform="matrix(0.993 -0.1177 0.1177 0.993 -5.9574 26.5009)" style="fill:#3D2A3D;" cx="221.349" cy="63.679" rx="19.329" ry="16.568"/>
					
						<ellipse transform="matrix(0.993 -0.1177 0.1177 0.993 -7.916 27.8804)" style="fill:#3D2A3D;" cx="232.048" cy="80.949" rx="19.329" ry="16.568"/>
				</g>
				<g>
					
						<ellipse transform="matrix(0.993 -0.1177 0.1177 0.993 -5.7385 30.5422)" style="fill:#3D2A3D;" cx="255.668" cy="63.847" rx="18.563" ry="15.911"/>
					
						<ellipse transform="matrix(0.993 -0.1177 0.1177 0.993 -7.6195 31.867)" style="fill:#3D2A3D;" cx="265.942" cy="80.432" rx="18.563" ry="15.911"/>
				</g>
				<g>
					
						<ellipse transform="matrix(0.993 -0.1177 0.1177 0.993 -6.5207 34.427)" style="fill:#3D2A3D;" cx="288.162" cy="72.411" rx="17.796" ry="15.254"/>
					
						<ellipse transform="matrix(0.993 -0.1177 0.1177 0.993 -8.324 35.6971)" style="fill:#3D2A3D;" cx="298.012" cy="88.31" rx="17.796" ry="15.254"/>
				</g>
				
					<ellipse transform="matrix(0.993 -0.1177 0.1177 0.993 -14.3038 17.0992)" style="fill:#3D2A3D;" cx="137.591" cy="129.63" rx="21.629" ry="18.539"/>
			</g>
		</g>
		<g style="clip-path:url(#SVGID_2_);">
			<g>
				<path style="fill:#3D2A3D;" d="M205.503,225.96c8.595-4.292,18.153-5.828,27.695-5.614c8.695,0.197,8.674-13.278,0-13.474
					c-11.974-0.27-23.764,2.095-34.495,7.454C190.928,218.208,197.755,229.83,205.503,225.96L205.503,225.96z"/>
			</g>
			<g>
				<path style="fill:#3D2A3D;" d="M309.483,225.96c-8.594-4.292-18.154-5.828-27.696-5.614c-8.693,0.197-8.674-13.278,0-13.474
					c11.974-0.27,23.764,2.095,34.496,7.454C324.058,218.208,317.233,229.83,309.483,225.96L309.483,225.96z"/>
			</g>
		</g>
	</g>
</g>
</svg>
