<?xml version="1.0" encoding="utf-8"?>
<!-- Generator: Adobe Illustrator 22.0.1, SVG Export Plug-In . SVG Version: 6.00 Build 0)  -->
<svg version="1.1" xmlns="http://www.w3.org/2000/svg" xmlns:xlink="http://www.w3.org/1999/xlink" x="0px" y="0px"
	 viewBox="0 0 512 512" style="enable-background:new 0 0 512 512;" xml:space="preserve">
<style type="text/css">
	.st0{fill:#E9B12D;}
	.st1{fill:#A9E7D8;}
	.st2{fill:#76CFB1;}
	.st3{fill:#AE6B5D;}
	.st4{fill:#7770D3;}
	.st5{fill:#5BA0F5;}
	.st6{fill:#DA4545;}
	.st7{fill:#89CCFC;}
	.st8{fill:#CD462A;}
	.st9{fill:#514896;}
	.st10{fill:#5493A0;}
	.st11{fill:#CC6B5C;}
	.st12{fill:#62AA8D;}
	.st13{fill:#8ABAAB;}
	.st14{fill:#C3791F;}
	.st15{fill:#E39123;}
	.st16{fill:#FFFFFF;}
	.st17{fill:none;stroke:#FFFFFF;stroke-width:10;stroke-linecap:round;stroke-miterlimit:10;}
	.st18{fill:none;stroke:#5F55AB;stroke-width:10;stroke-linecap:round;stroke-miterlimit:10;}
	.st19{fill:#A9671C;}
	.st20{fill:#D5B3A7;}
	.st21{fill:#C09A8F;}
	.st22{fill:#487F87;}
	.st23{fill:#1B305C;}
	.st24{fill:#172945;}
	.st25{fill:none;}
	.st26{fill:#B62A2A;}
	.st27{fill:#325859;}
	.st28{fill:#3F6E71;}
	.st29{fill:#284646;}
	.st30{fill:#8F2727;}
	.st31{fill:#29477C;}
	.st32{fill:#5B9BEE;}
	.st33{fill:#487FDE;}
	.st34{fill:#CD9829;}
	.st35{fill:#9F2A2A;}
	.st36{fill:#4C3328;}
	.st37{fill:#E8B94A;}
	.st38{fill:#DDF8F1;}
	.st39{fill:#3E2A22;}
	.st40{fill:#D3A971;}
	.st41{fill:#C79A5B;}
	.st42{fill:#233E76;}
	.st43{fill:#21395F;}
	.st44{fill:#487D82;}
	.st45{fill:none;stroke:#C79A5B;stroke-width:10;stroke-linecap:round;stroke-miterlimit:10;}
	.st46{fill:#5E3E31;}
	.st47{fill:#AC3939;}
	.st48{fill:#CA9628;}
	.st49{fill:#AF8F88;}
	.st50{fill:#815048;}
	.st51{fill:#6F4232;}
	.st52{fill:#5F55AB;}
	.st53{fill:#192A48;}
	.st54{fill:#152336;}
	.st55{fill:#192B49;}
	.st56{fill:#264173;}
	.st57{fill:#B06F1E;}
	.st58{fill:#4E88C0;}
	.st59{fill:#83C3F1;}
	.st60{fill:#CF9929;}
	.st61{fill:none;stroke:#FFFFFF;stroke-width:10;stroke-linecap:round;stroke-linejoin:round;stroke-miterlimit:10;}
	.st62{fill:#EAC262;}
	.st63{fill:#D6D5D4;}
	.st64{fill:#6BBA9B;}
	.st65{fill:#63AA8F;}
	.st66{fill:none;stroke:#3E2A22;stroke-width:10;stroke-linecap:round;stroke-miterlimit:10;}
	.st67{fill:#CA7D1F;}
	.st68{fill:#213B64;}
	.st69{fill:#CDF8EC;}
	.st70{fill:#C59125;}
	.st71{fill:none;stroke:#C09A8F;stroke-width:10;stroke-linecap:round;stroke-miterlimit:10;}
	.st72{fill:#32579B;}
	.st73{fill:#172843;}
	.st74{fill:#D66767;}
	.st75{fill:#A74949;}
	.st76{fill:#EBC76F;}
	.st77{fill:#7A4940;}
	.st78{fill:#182A48;}
	.st79{fill:none;stroke:#A0794A;stroke-width:10;stroke-linecap:round;stroke-miterlimit:10;}
	.st80{fill:#C37A20;}
	.st81{fill:#D26D5C;}
	.st82{fill:#A45752;}
	.st83{fill:#284579;}
	.st84{fill:#88C7F4;}
	.st85{fill:#6EB6F0;}
	.st86{fill:#32221E;}
	.st87{fill:#E7A6A6;}
	.st88{fill:#C59191;}
	.st89{fill:#AA3B3B;}
	.st90{fill:#B83E3E;}
	.st91{fill:none;stroke:#5F55A9;stroke-width:10;stroke-linecap:round;stroke-miterlimit:10;}
	.st92{fill:#963838;}
	.st93{fill:#402B25;}
	.st94{fill:#6B6ABA;}
	.st95{fill:#BABABA;}
	.st96{fill:#D1D1D1;}
	.st97{fill:#264377;}
	.st98{fill:#A19BF5;}
	.st99{fill:#3C2A21;}
	.st100{fill:none;stroke:#4C3328;stroke-width:10;stroke-linecap:round;stroke-miterlimit:10;}
	.st101{fill:#C1781F;}
	.st102{fill:#E3A147;}
	.st103{fill:#F2D2A1;}
	.st104{fill:#4F372D;}
	.st105{fill:none;stroke:#DA4545;stroke-width:10;stroke-linecap:round;stroke-miterlimit:10;}
	.st106{fill:#AA3928;}
	.st107{fill:#8C2C22;}
	.st108{fill:#BF4336;}
	.st109{fill:#5797D4;}
	.st110{fill:#CFCFCF;}
	.st111{fill:#613A2E;}
	.st112{fill:none;stroke:#B18653;stroke-width:10;stroke-linecap:round;stroke-miterlimit:10;}
	.st113{fill:#B13B3B;}
	.st114{fill:#16263A;}
	.st115{fill:none;stroke:#16263A;stroke-width:10;stroke-miterlimit:10;}
	.st116{fill:#C87D20;}
	.st117{fill:#E4F0FD;}
	.st118{fill:#AA3737;}
	.st119{fill:#BF771F;}
	.st120{fill:none;stroke:#CD462A;stroke-width:10;stroke-linejoin:round;stroke-miterlimit:10;}
	.st121{fill:#5696D2;}
	.st122{fill:#C0771E;}
	.st123{fill:#9B5F1B;}
	.st124{fill:#A83A29;}
	.st125{fill:#E7A74F;}
	.st126{fill:#C9924C;}
	.st127{fill:#C58E48;}
	.st128{fill:#BE8844;}
	.st129{fill:#916939;}
	.st130{fill:#264275;}
	.st131{fill:#253F65;}
	.st132{fill:#182A45;}
	.st133{fill:#162336;}
	.st134{fill:#93C7B7;}
	.st135{fill:#E6A4A4;}
	.st136{fill:#B06B1D;}
	.st137{fill:#484185;}
	.st138{fill:#DB6E6E;}
	.st139{fill:#6BBA9A;}
	.st140{fill:#CACCCC;}
	.st141{fill:#D4D4D4;}
	.st142{fill:#A98881;}
	.st143{fill:#213A62;}
	.st144{fill:#A2837D;}
	.st145{fill:#6FB8F4;}
	.st146{fill:#9B9E9E;}
	.st147{fill:#B2B3B3;}
	.st148{fill:#20385D;}
	.st149{fill:#335AA8;}
	.st150{fill:#BCE7FD;}
	.st151{fill:#3B2921;}
	.st152{fill:#AD3C3C;}
	.st153{fill:#9D3838;}
	.st154{fill:#603F33;}
	.st155{fill:#4D868B;}
	.st156{fill:#A2DDFD;}
	.st157{fill:#ECB6B6;}
	.st158{fill:#E8A346;}
	.st159{fill:#514C94;}
	.st160{fill:#D2F1E8;}
	.st161{fill:#BDD6CE;}
	.st162{fill:#B93B29;}
	.st163{fill:#E0AD70;}
	.st164{fill:#C57C21;}
	.st165{fill:#EDA34A;}
	.st166{fill:#2F538F;}
	.st167{fill:#2B4B78;}
	.st168{fill:#65AF91;}
	.st169{fill:#A7CEFC;}
	.st170{fill:#98BDE2;}
	.st171{fill:#CFE5F7;}
	.st172{fill:#5492CD;}
	.st173{fill:#97CCBC;}
	.st174{fill:#5491CA;}
	.st175{fill:#EDC563;}
	.st176{fill:#423C79;}
	.st177{fill:#D3B1A5;}
	.st178{fill:#BE988D;}
	.st179{fill:#A7E5D6;}
	.st180{fill:#F2FFF9;}
	.st181{fill:#D64545;}
	.st182{fill:#A73B3B;}
	.st183{fill:#15233A;}
	.st184{fill:none;stroke:#BE988D;stroke-width:10;stroke-linecap:round;stroke-miterlimit:10;}
	.st185{fill:#AF3A29;}
	.st186{fill:#FAF9FF;}
	.st187{fill:#CACACC;}
	.st188{fill:#372720;}
	.st189{fill:#3F2C26;}
	.st190{fill:#2D201C;}
	.st191{fill:#3D6D6F;}
	.st192{fill:#5B54A8;}
	.st193{fill:#325799;}
	.st194{fill:#E8C26E;}
	.st195{fill:#254784;}
	.st196{fill:#5696D4;}
	.st197{fill:#4F8AB6;}
	.st198{fill:#5FA4AC;}
	.st199{fill:#AA3524;}
	.st200{fill:#D15F4D;}
	.st201{fill:#2B294C;}
	.st202{fill:#A43A2A;}
	.st203{fill:#E7AE2D;}
	.st204{fill:#CD9729;}
	.st205{fill:none;stroke:#AA8253;stroke-width:10;stroke-linecap:round;stroke-miterlimit:10;}
	.st206{fill:none;stroke:#E18F23;stroke-width:10;stroke-linecap:round;stroke-linejoin:round;stroke-miterlimit:10;}
	.st207{fill:#CF9828;}
	.st208{fill:#B88926;}
	.st209{fill:#A17623;}
	.st210{fill:#96CCBC;}
	.st211{fill:#CF9A2A;}
	.st212{fill:#C57B20;}
	.st213{fill:#C7F1E6;}
	.st214{fill:#DC6363;}
	.st215{fill:#E89F9F;}
	.st216{fill:#C88C8C;}
	.st217{fill:#C16E6E;}
	.st218{fill:#A46060;}
	.st219{fill:#AA3626;}
	.st220{fill:#87EDC4;}
	.st221{fill:#D86552;}
	.st222{fill:#BC7620;}
	.st223{fill:#BA741E;}
	.st224{fill:#8F8CE3;}
	.st225{fill:#3A2820;}
	.st226{fill:#AC7060;}
	.st227{fill:#915F55;}
	.st228{fill:#49332A;}
	.st229{fill:#2D1F1B;}
	.st230{fill:#69B7BE;}
	.st231{fill:#D6D6D6;}
	.st232{fill:#B8B8B8;}
	.st233{fill:#CACACA;}
	.st234{fill:#467B80;}
	.st235{fill:#C2EDE2;}
	.st236{fill:#A9574F;}
	.st237{fill:#5595D2;}
	.st238{fill:#955949;}
	.st239{fill:#7E4B42;}
	.st240{fill:#89CCF1;}
	.st241{fill:#DD584A;}
	.st242{fill:#C18F26;}
	.st243{fill:#B33C2A;}
	.st244{fill:#D1A771;}
	.st245{fill:#B42A2A;}
	.st246{fill:#325797;}
	.st247{fill:#9F3529;}
	.st248{fill:#EDCE80;}
	.st249{fill:#F0DBAC;}
	.st250{fill:#CFB478;}
	.st251{fill:#D4C29B;}
	.st252{fill:#993939;}
	.st253{fill:#D1AFA3;}
	.st254{fill:#BC968B;}
	.st255{fill:none;stroke:#BC968B;stroke-width:10;stroke-linecap:round;stroke-miterlimit:10;}
	.st256{fill:#814C3C;}
	.st257{fill:#C0EBE0;}
	.st258{fill:#A5E3D4;}
	.st259{fill:#15243C;}
	.st260{fill:#443E79;}
	.st261{fill:#F0FFF7;}
	.st262{fill:#9A764B;}
	.st263{fill:#826443;}
	.st264{fill:#D9AA74;}
	.st265{fill:#5DA186;}
	.st266{fill:#68B596;}
	.st267{fill:#E5C6BE;}
	.st268{fill:#D3B6B1;}
	.st269{fill:none;stroke:#BAA09C;stroke-width:10;stroke-linecap:round;stroke-miterlimit:10;}
	.st270{fill:#F4D78F;}
	.st271{fill:#20385F;}
	.st272{fill:#BA8727;}
	.st273{fill:#5A9C82;}
	.st274{fill:none;stroke:#E39123;stroke-width:10;stroke-linecap:round;stroke-linejoin:round;stroke-miterlimit:10;}
	.st275{fill:#60392D;}
	.st276{fill:#CCCCCC;}
	.st277{fill:#844F3E;}
	.st278{fill:#F3FFFB;}
	.st279{fill:#365E60;}
	.st280{fill:#D84545;}
	.st281{fill:#A83B3B;}
	.st282{fill:#253F70;}
	.st283{fill:#EAADAD;}
	.st284{fill:#443E7C;}
	.st285{fill:#3D6B9F;}
	.st286{fill:#4274BC;}
	.st287{fill:#AF3827;}
	.st288{fill:#E59D9D;}
	.st289{fill:#C48989;}
	.st290{fill:none;stroke:#9B621A;stroke-width:10;stroke-linecap:round;stroke-linejoin:round;stroke-miterlimit:10;}
	.st291{fill:#213A5E;}
	.st292{fill:#2D507A;}
	.st293{fill:#528EC8;}
	.st294{fill:#EFD696;}
	.st295{fill:#D1BA87;}
	.st296{fill:#FDFCFC;}
	.st297{fill:#86CBFC;}
	.st298{fill:#7AB7DA;}
	.st299{fill:#192C4C;}
	.st300{fill:#BCBCBC;}
	.st301{fill:#A13838;}
	.st302{fill:#75BDF6;}
	.st303{fill:#D0B1AA;}
	.st304{fill:#142233;}
	.st305{fill:#E6C4BB;}
	.st306{fill:#BDBDBD;}
	.st307{fill:#E8A192;}
	.st308{fill:#A43939;}
	.st309{fill:#162640;}
	.st310{fill:#27457C;}
	.st311{fill:#EFBE5E;}
	.st312{fill:#87EDC5;}
	.st313{fill:#A03838;}
	.st314{fill:#833232;}
	.st315{fill:#47417F;}
	.st316{fill:none;stroke:#915F55;stroke-width:10;stroke-linecap:round;stroke-miterlimit:10;}
	.st317{fill:#BC8B25;}
	.st318{fill:#473129;}
	.st319{fill:#67B394;}
	.st320{fill:#599A80;}
	.st321{fill:#B13D3D;}
</style>
<g id="BULINE">
	<g>
		<circle id="XMLID_8_" class="st1" cx="261.2" cy="276" r="256"/>
	</g>
</g>
<g id="Icons">
	<g id="XMLID_13_">
		<path id="XMLID_902_" class="st32" d="M509.4,339.1c-5.7,22.5-14.4,43.8-25.6,63.5c-19.3,33.9-46.2,62.9-78.3,84.9
			c-15.1,10.3-31.3,19-48.4,25.9c-29.6,12-61.9,18.5-95.8,18.5c-38.5,0-75-8.5-107.7-23.7c-11.3-5.3-22.2-11.3-32.6-18.1
			c-34.1-22.4-62.6-52.7-82.7-88.4c-10-17.6-17.9-36.5-23.5-56.4c22.1-5.9,54.8-12.5,74.5-6.2c4.1,1.3,8.3,2.5,12.6,3.3
			c5.6,1.1,13.3,2.4,21.8,3.4c0,0,0,0,0,0c10.4,1.2,21.8,1.9,31.5,0.9c0.2,0,0.4,0,0.6-0.1c7.5-0.8,13.9-2.7,17.9-6.1l12.7-0.1l3,0
			l11.5-0.1h0l16.9-0.1l25.3-0.2l12-0.1h0.3l17.7-0.1l4.9,0l11.5-0.1l29-0.2l16.9-0.1l29.8-0.2c0,0,1.9-0.6,5.1-1.5
			c6.5-1.7,18.7-4.5,32.4-5.8c12.8-1.2,27-0.9,39.4,2.8c13.7,4.1,27.8,6.3,42.1,5.9C492.6,340.7,501.6,340.2,509.4,339.1z"/>
		<path id="XMLID_848_" class="st33" d="M483.8,402.7c-19.3,33.9-46.2,62.9-78.3,84.9c-15.1,10.3-31.3,19-48.4,25.9
			c-29.6,12-61.9,18.5-95.8,18.5c-38.5,0-75-8.5-107.7-23.7c-11.3-5.3-22.2-11.3-32.6-18.1c-34.1-22.4-62.6-52.7-82.7-88.4
			c18.1-3.4,37.6-5.1,51.1-0.8c4.1,1.3,8.3,2.5,12.6,3.3c10,2,27.3,4.8,42.8,4.9c0,0,0,0,0,0c1.9,0,3.7,0,5.5-0.1c0.2,0,0.4,0,0.6,0
			c9.6-0.5,18-2.3,22.9-6.5l3.5,0l8.6-0.1l7.7-0.1h0.5l2.5,0l15.4-0.1l32.6-0.2l45-0.3l48.2-0.3l0.9,0h0.2l9.6-0.1l17-0.1
			c0,0,6.6-2.1,16.7-4.1c3-0.6,6.3-1.2,9.8-1.8c15.2-2.3,34.3-3.4,50.5,1.4C455.7,400.8,469.7,403,483.8,402.7z"/>
		<path id="XMLID_3542_" class="st0" d="M425.5,370.8c-9.9-11-17.5-25.9-22.7-38c-4.1-9.8-6.7-17.7-7.5-20.4l-3.8-58.6
			c3.7,1.7,7.8,3.2,12,4.5c4.6,1.4,7.7-4.5,4.1-7.5c-6.7-5.6-12.8-12-17.4-17.4l-3.6-54.8l-2.6-40.2c-2.1-31.7-21.7-58.3-49.1-70.4
			c-10.3-4.6-21.7-7.1-33.7-7.1h-35.6c-3.2-2.9-6.7-5.4-10.4-7.6c0,0,0,0,0,0c-0.6-0.3-1.2-0.7-1.8-1c-1.8-1-3.6-1.8-5.5-2.6
			c-0.6-0.3-1.2-0.5-1.9-0.8c-0.6-0.2-1.3-0.5-1.9-0.7c-1.9-0.7-3.9-1.2-5.8-1.7c0,0,0,0-0.1,0c-0.7-0.2-1.3-0.3-2-0.4
			c-0.6-0.1-1.1-0.2-1.7-0.3c-0.2,0-0.3-0.1-0.5-0.1c-0.1,0-0.2,0-0.3,0c-0.5-0.1-1.1-0.2-1.6-0.2c-0.7-0.1-1.4-0.2-2.1-0.2h0
			c-0.6-0.1-1.2-0.1-1.9-0.2c-0.2,0-0.4,0-0.6,0c-0.6,0-1.2-0.1-1.8-0.1c-0.7,0-1.4,0-2.1,0h0c-4.5,0-8.9,0.5-13.1,1.4
			c-25.9,5.5-45.9,27.1-49,53.8c-7,11.3-11.5,24.4-12.4,38.5l-6,92.5c-4.8,5.7-11.7,13.3-19.5,19.9c-3,2.5-1.4,6.9,1.8,7.7
			c0.5,0.1,1,0.1,1.5,0c0.2,0,0.5-0.1,0.7-0.2c4.9-1.5,9.8-3.3,14-5.5c0,0,0,0,0,0l-3.8,58.6c0,0-2.7,9.4-7.8,21.5
			c-1.8,4.3-4,8.9-6.4,13.6c-4.4,8.5-9.9,17.2-16.2,24.3c-3,3.3,0.3,8.1,4.3,7.1c0,0,0.1,0,0.1,0c0.1,0,0.3-0.1,0.4-0.1
			c0,0,0,0,0.1,0c1.2-0.5,2.4-1,3.6-1.5c8.5-3.8,17-9.2,21.9-16.8c0,0,0,0,0-0.1c0,0-0.4,27.6,6.8,50.3c1.5,4.6,3.3,9.1,5.5,13
			c0.2,0.3,0.4,0.7,0.6,1c3.8,6.5,8.7,11.5,15,13.8c0,0,0,0,0,0l11.4-14.2l8.6-10.8l7.7-9.7l2.9-3.7l4.5-5.6l0,0l16.9-21.2
			l25.3-31.7l3.6-4.5l0.1-0.2l1.7-2.2h35.7l1.7,2.1l3.5,4.4l29,36.3l16.9,21.2l2.2,2.7l1,1.3l0.9,1.1l1,1.2l7.8,9.7l18.8,23.5
			c6.2-2.3,11.1-7.2,14.8-13.5c4.8-8,7.8-18.2,9.8-28.2c3.7-18.7,3.4-36.5,3.4-36.5c5.6,8.7,15.8,14.5,25.5,18.4
			C424.8,379.4,428.6,374.2,425.5,370.8z"/>
		<path id="XMLID_536_" class="st34" d="M223.6,44.1c-32.1,0-58.5,24.1-62.2,55.2c-7.1,11.3-11.5,24.4-12.4,38.5l-6,92.5
			c-4.8,5.7-11.7,13.3-19.5,19.9c-3.6,3.1-0.5,8.9,4.1,7.5c4.9-1.5,9.8-3.3,14-5.5l-3.8,58.6c0,0-4.4,15.4-12.7,32.2
			c-4.7,9.4-10.6,19.3-17.7,27.2c-3.1,3.4,0.6,8.7,4.9,7c9.7-3.9,20-9.7,25.6-18.4c0,0-1.1,67.5,27.9,78.2l37.5-47
			c-2.7-16.6-2.4-31.2-2.4-31.2c-12.4,19.2-47.9,24.7-49,24.9c15.7-5.6,27.9-23.8,36.3-40.6c8.3-16.8,12.7-32.2,12.7-32.2l2.3-35.6
			c-0.1-0.1-0.3-0.2-0.4-0.4c-0.2-0.2-0.5-0.5-0.7-0.7c-0.3-0.3-0.6-0.6-0.9-0.8c-0.2-0.2-0.5-0.4-0.7-0.7c-0.3-0.3-0.6-0.6-0.9-0.9
			c-0.2-0.2-0.4-0.4-0.6-0.7c-0.3-0.3-0.6-0.6-0.9-0.9c-0.2-0.3-0.5-0.5-0.7-0.8c-0.2-0.2-0.4-0.5-0.6-0.7c-0.2-0.2-0.4-0.5-0.6-0.7
			c-0.3-0.3-0.6-0.7-0.9-1c-0.2-0.2-0.3-0.4-0.5-0.6c-0.3-0.3-0.6-0.7-0.9-1.1c-0.1-0.2-0.3-0.4-0.4-0.5c-0.3-0.4-0.6-0.8-0.9-1.2
			c-0.1-0.1-0.2-0.3-0.3-0.4c-0.3-0.4-0.6-0.8-1-1.3c-0.1-0.1-0.1-0.2-0.2-0.2c-0.8-1.1-1.7-2.3-2.5-3.5c-1.4-2.1-2.7-4.3-4-6.5
			c0-0.1-0.1-0.1-0.1-0.2c0,0,0-0.1-0.1-0.1c-0.3-0.5-0.6-1.1-0.9-1.6c0-0.1-0.1-0.2-0.1-0.2c-0.3-0.5-0.6-1.1-0.8-1.6
			c0-0.1-0.1-0.2-0.1-0.3c-0.3-0.5-0.5-1.1-0.8-1.6c0-0.1-0.1-0.2-0.1-0.3c-0.3-0.5-0.5-1.1-0.7-1.6c0-0.1-0.1-0.2-0.1-0.3
			c-0.2-0.6-0.5-1.1-0.7-1.7c0-0.1-0.1-0.2-0.1-0.2c-0.2-0.6-0.5-1.2-0.7-1.8c0,0,0-0.1,0-0.1c-2.8-7.2-4.6-14.8-5.5-22.7
			c0,0,0,0,0,0h-2.3c-7.1,0-12.8-5.7-12.8-12.8v-12.2c0-7.1,5.7-12.8,12.8-12.8h1.7v-7.1c7.3,0.6,17.6-3,17.6-3
			c1.2,5.9-10.1,18.7-10.1,18.7c10.1-3.5,18.6-13.1,24.5-21.5c0,0,0,0,0,0c1.7,0.5,3.4,1,5.1,1.4l2-30c0.9-14.1,5.4-27.3,12.4-38.5
			c2.4-19.9,14.1-37,30.6-46.7C245.9,47.2,235.1,44.1,223.6,44.1z"/>
		<path id="XMLID_534_" class="st20" d="M273,340.7h-13.1c-10.5,0-19-8.5-19-19v-31.3c0-10.5,8.5-19,19-19H273c10.5,0,19,8.5,19,19
			v31.3C291.9,332.2,283.5,340.7,273,340.7z"/>
		<path id="XMLID_533_" class="st21" d="M275.4,340.5c-0.9,0.1-1.8,0.2-2.7,0.2h-13.1c-10.5,0-19-8.5-19-19v-31.3
			c0-10.5,8.5-19,19-19h13.1c0.9,0,1.8,0.1,2.7,0.2c-9.2,1.3-16.2,9.2-16.2,18.8v31.3C259.1,331.3,266.2,339.2,275.4,340.5z"/>
		<path id="XMLID_535_" class="st20" d="M381.9,496.4H150.2V366.3c0-22.4,18.2-40.6,40.6-40.6h150.4c22.4,0,40.6,18.2,40.6,40.6
			V496.4z"/>
		<path id="XMLID_532_" class="st21" d="M217.8,325.7c-22.4,0-40.6,18.2-40.6,40.6v130.1h-26.4V366.3c0-22.4,18.2-40.6,40.7-40.6
			H217.8z"/>
		<path id="XMLID_530_" class="st20" d="M179.2,240c-2.8-7.2-4.6-14.8-5.5-22.7C174.6,225.2,176.4,232.8,179.2,240z"/>
		<path id="XMLID_527_" class="st20" d="M332.2,179.4c-18.9-14.3-19-29.8-16.8-38.9c-2.4-5.8-3.9-12-4.4-18.6
			c-6.2,6.6-14.9,10.7-24.7,10.7c-1.9,0-3.7-0.2-5.5-0.4c-9.8,21.8-31.7,37-57.1,37c-6.1,0-11.9-0.9-17.5-2.5v40.1
			c0,45.5,32.8,83.4,76.1,91.2c39.9-7.2,71-40,75.5-80.7h2.7c7.1,0,12.8-5.7,12.8-12.8v-12.3c0-7.1-5.7-12.8-12.8-12.8h-2.1v-1.8
			c-10.2-2.5-19.5-7.5-27-14.3C330.5,172.7,332.2,179.4,332.2,179.4z"/>
		<path id="XMLID_526_" class="st20" d="M181.6,245.8c-0.3-0.5-0.5-1.1-0.7-1.6C181.1,244.7,181.4,245.2,181.6,245.8z"/>
		<path id="XMLID_524_" class="st20" d="M180,241.9c-0.2-0.6-0.5-1.2-0.7-1.8C179.5,240.8,179.7,241.3,180,241.9z"/>
		<path id="XMLID_523_" class="st20" d="M180.8,243.9c-0.2-0.6-0.5-1.1-0.7-1.7C180.3,242.7,180.5,243.3,180.8,243.9z"/>
		<path id="XMLID_522_" class="st21" d="M180,242.2c0-0.1-0.1-0.1-0.1-0.2C180,242,180,242.1,180,242.2z"/>
		<path id="XMLID_521_" class="st21" d="M180.9,244.1c0-0.1-0.1-0.2-0.1-0.3C180.8,244,180.8,244,180.9,244.1z"/>
		<path id="XMLID_520_" class="st21" d="M179.2,240.2c0,0,0-0.1-0.1-0.1C179.2,240.1,179.2,240.1,179.2,240.2z"/>
		<path id="XMLID_519_" class="st21" d="M206.2,206.9v-40.1c-0.4-0.1-0.8-0.2-1.1-0.3c-5.9,8.5-14.4,18-24.5,21.5
			c0,0,11.3-12.9,10.1-18.7c0,0-10.3,3.6-17.6,3v7.1h-1.7c-7.1,0-12.8,5.7-12.8,12.8v12.3c0,7.1,5.7,12.8,12.8,12.8h2.3c0,0,0,0,0,0
			c0.9,7.9,2.8,15.5,5.5,22.7c0,0,0,0.1,0.1,0.1c0.2,0.6,0.5,1.2,0.7,1.8c0,0.1,0.1,0.1,0.1,0.2c0.2,0.6,0.5,1.1,0.7,1.7
			c0,0.1,0.1,0.2,0.1,0.3c0.2,0.6,0.5,1.1,0.7,1.6c0,0.1,0.1,0.2,0.1,0.3c0.3,0.5,0.5,1.1,0.8,1.6c0,0.1,0.1,0.2,0.1,0.3
			c0.3,0.5,0.5,1.1,0.8,1.6c0,0.1,0.1,0.2,0.1,0.2c0.3,0.5,0.6,1.1,0.9,1.6c0,0,0.1,0.1,0.1,0.1c2,3.5,4.1,6.9,6.5,10.2
			c0.1,0.1,0.1,0.2,0.2,0.2c0.3,0.4,0.6,0.9,1,1.3c0.1,0.1,0.2,0.3,0.3,0.4c0.3,0.4,0.6,0.8,0.9,1.2c0.1,0.2,0.3,0.4,0.4,0.5
			c0.3,0.4,0.6,0.7,0.9,1.1c0.2,0.2,0.3,0.4,0.5,0.6c0.3,0.3,0.6,0.7,0.9,1c0.2,0.2,0.4,0.4,0.5,0.6c0.3,0.3,0.6,0.6,0.9,0.9
			c0.2,0.2,0.4,0.4,0.6,0.6c0.3,0.3,0.6,0.6,0.9,0.9c0.2,0.2,0.4,0.4,0.6,0.7c0.3,0.3,0.6,0.6,0.9,0.9c0.2,0.2,0.5,0.4,0.7,0.7
			c0.3,0.3,0.6,0.5,0.9,0.8c0.2,0.2,0.5,0.5,0.7,0.7c0.3,0.3,0.6,0.5,0.8,0.8c0.3,0.2,0.5,0.5,0.8,0.7c0.3,0.2,0.5,0.5,0.8,0.7
			c0.3,0.3,0.6,0.5,0.9,0.8c0.2,0.2,0.5,0.4,0.7,0.6c0.5,0.4,0.9,0.7,1.4,1.1c0.2,0.1,0.3,0.3,0.5,0.4c0.5,0.4,1,0.8,1.5,1.1
			c0.2,0.1,0.4,0.3,0.6,0.4c0.4,0.3,0.8,0.6,1.2,0.8c0.2,0.2,0.4,0.3,0.7,0.5c0.4,0.3,0.7,0.5,1.1,0.8c0.2,0.2,0.5,0.3,0.7,0.5
			c0.4,0.2,0.7,0.5,1.1,0.7c0.2,0.2,0.5,0.3,0.7,0.4c0.4,0.2,0.8,0.5,1.1,0.7c0.2,0.1,0.5,0.3,0.7,0.4c0.4,0.2,0.8,0.5,1.2,0.7
			c0.2,0.1,0.5,0.3,0.7,0.4c0.4,0.2,0.8,0.4,1.2,0.7c0.2,0.1,0.5,0.3,0.7,0.4c0.4,0.2,0.8,0.4,1.2,0.7c0.2,0.1,0.5,0.2,0.7,0.4
			c0.4,0.2,0.9,0.4,1.3,0.6c0.2,0.1,0.4,0.2,0.6,0.3c0.5,0.2,0.9,0.4,1.4,0.6c0.2,0.1,0.4,0.2,0.6,0.3c0.5,0.2,1,0.4,1.5,0.7
			c0.2,0.1,0.3,0.1,0.5,0.2c0.6,0.2,1.2,0.5,1.8,0.7c0.1,0,0.2,0.1,0.2,0.1c2.1,0.8,4.2,1.6,6.4,2.2c0.1,0,0.1,0,0.2,0.1
			c0.6,0.2,1.3,0.4,2,0.6c0.1,0,0.3,0.1,0.4,0.1c0.6,0.2,1.2,0.3,1.7,0.5c0.2,0,0.4,0.1,0.5,0.1c0.5,0.1,1.1,0.3,1.6,0.4
			c0.2,0,0.4,0.1,0.6,0.1c0.5,0.1,1.1,0.2,1.6,0.3c0.2,0,0.4,0.1,0.6,0.1c0.5,0.1,1.1,0.2,1.6,0.3c0.2,0,0.4,0.1,0.7,0.1
			c0.5,0.1,1.1,0.2,1.6,0.3c0.2,0,0.4,0.1,0.7,0.1c0.5,0.1,1.1,0.2,1.6,0.2c0.2,0,0.4,0.1,0.6,0.1c0.6,0.1,1.1,0.1,1.7,0.2
			c0.2,0,0.4,0,0.6,0.1c0.6,0.1,1.2,0.1,1.8,0.2c0.2,0,0.3,0,0.5,0c0.7,0,1.3,0.1,2,0.1c0.1,0,0.2,0,0.3,0c1.6,0.1,3.1,0.1,4.7,0.1
			h0c0.1,0,0.1,0,0.2,0c1.2,0,2.5,0,3.7-0.1c0.2,0,0.3,0,0.5,0c1.2-0.1,2.4-0.1,3.7-0.2c0.2,0,0.4,0,0.6,0c1.2-0.1,2.4-0.2,3.6-0.4
			c0.2,0,0.4,0,0.6-0.1c1.2-0.2,2.4-0.4,3.5-0.6c0.1,0,0.2,0,0.3,0C239,290.2,206.2,252.4,206.2,206.9z"/>
		<path id="XMLID_517_" class="st21" d="M342.9,496.4L342.9,496.4c2.9,0,5.3-2.4,5.3-5.3v-94.4c0-2.9-2.4-5.3-5.3-5.3l0,0
			c-2.9,0-5.3,2.4-5.3,5.3v94.4C337.6,494.1,340,496.4,342.9,496.4z"/>
		<path id="XMLID_516_" class="st21" d="M191.1,496.4L191.1,496.4c2.9,0,5.3-2.4,5.3-5.3v-94.4c0-2.9-2.4-5.3-5.3-5.3h0
			c-2.9,0-5.3,2.4-5.3,5.3v94.4C185.7,494.1,188.1,496.4,191.1,496.4z"/>
		<path id="XMLID_515_" class="st26" d="M335.4,399v-72.5c0-4.7-3.8-8.5-8.5-8.5c-4.7,0-8.5,3.8-8.5,8.5v69.7H311
			c-24.5,0-44.3,19.8-44.3,44.3c0-24.5-19.8-44.3-44.3-44.3h-4.6v-69.7c0-4.7-3.8-8.5-8.5-8.5c-4.7,0-8.5,3.8-8.5,8.5v71
			c-6.8,2.7-11.6,9.3-11.6,17.1v20.7c0,13.1,10.6,23.7,23.7,23.7h53.7h53.7c13.1,0,23.7-10.6,23.7-23.7v-20.7
			C344,407.9,340.6,402.2,335.4,399z"/>
		<path id="XMLID_510_" class="st35" d="M230.7,458.9H213c-13.1,0-23.7-10.6-23.7-23.7v-20.7c0-7.7,4.8-14.4,11.6-17.1v-71
			c0-4.7,3.8-8.5,8.5-8.5s8.5,3.8,8.5,8.5v69.7h0.9v1.3c-6.8,2.7-11.6,9.3-11.6,17.1v20.7C207,448.3,217.7,458.9,230.7,458.9z"/>
		<circle id="XMLID_509_" class="st23" cx="220.5" cy="192.2" r="12.7"/>
		<circle id="XMLID_507_" class="st16" cx="223.8" cy="188" r="5.6"/>
		<circle id="XMLID_505_" class="st23" cx="309.6" cy="192.2" r="12.7"/>
		<circle id="XMLID_504_" class="st16" cx="312.9" cy="188" r="5.6"/>
		<path id="XMLID_501_" class="st21" d="M271.5,221.3H260c-3.8,0-6.8-3.1-6.8-6.8v0c0-3.8,3.1-6.8,6.8-6.8h11.5
			c3.8,0,6.8,3.1,6.8,6.8v0C278.3,218.3,275.3,221.3,271.5,221.3z"/>
		<path id="XMLID_500_" class="st36" d="M290.9,237c1.3,0,2.4,1.1,2.4,2.4l0,0c0,2.5-0.3,4.9-1,7.2c-1.4,5.3-4.4,10-8.5,13.6
			c-4.8,4.2-11.2,6.8-18.1,6.8c-6.9,0-13.2-2.5-18.1-6.8c-4.1-3.5-7.1-8.2-8.5-13.6c-0.6-2.3-1-4.7-1-7.2l0,0c0-1.3,1.1-2.4,2.4-2.4
			H290.9z"/>
		<path id="XMLID_16_" class="st26" d="M283.8,260.2c-4.8,4.2-11.2,6.8-18.1,6.8c-6.9,0-13.2-2.5-18.1-6.8
			c4.8-4.2,11.2-6.8,18.1-6.8C272.7,253.4,279,256,283.8,260.2z"/>
		<path id="XMLID_15_" class="st16" d="M290.9,237c1.3,0,2.4,1.1,2.4,2.4l0,0c0,2.5-0.3,4.9-1,7.2h-53.2c-0.6-2.3-1-4.7-1-7.2l0,0
			c0-1.3,1.1-2.4,2.4-2.4H290.9z"/>
		<path id="XMLID_531_" class="st37" d="M335.4,83.7c10.2,3.8,26.7,13,35.8,34c1,2.2-1.2,4.5-3.5,3.7l-8.6-3
			c-2.1-0.7-4.1,1.1-3.6,3.2c0.8,3.6,1.7,8.8,1.9,14.7c0.1,3-4,4-5.3,1.2c-5-10.9-14.4-26-29.5-30.1c-2.5-0.7-2.8-4-0.5-5.2
			c2.8-1.4,6.1-2.7,9.2-3c1.5-0.1,2.7-1.4,2.6-2.9c-0.2-2.5-0.6-6.1-1.8-9.2C331,85.1,333.2,82.9,335.4,83.7z"/>
		<path id="XMLID_814_" class="st33" d="M405.5,487.5c-15.1,10.3-31.3,19-48.4,25.9c-58.9,0.6-148.7,0.5-203.5-5.2
			c-11.3-5.3-22.2-11.3-32.6-18.1c7.3-2.2,17.2-4.2,29.3-4.3h0.6c7.9,0,16.7,0.9,26.4,3c0.3,0.1,0.5,0.1,0.8,0.2
			c2.6,0.6,5.2,1.1,7.8,1.6c3.5,0.7,7,1.2,10.5,1.6c1.4,0.2,2.7,0.3,4.1,0.4c13,1.1,31.3,1.9,40.5-1.6c0,0,32.2-12.3,56.8-2.6
			c6.2,2.4,12.6,4.1,19.2,4.8c6,0.6,13.5,0.8,21.1-0.1c3.4-0.4,6.8-1,10.2-1.9c3.6-1,7.2-2.2,10.5-3.9c4.7-2.4,9.7-4.1,14.9-4.8
			c2.5-0.3,5.2-0.6,8.2-0.6C389.3,481.9,397.9,483.1,405.5,487.5z"/>
		<path id="XMLID_784_" class="st38" d="M494.2,203.7c0-10.5-8.5-19-19-19c-1.8,0-3.5,0.3-5.1,0.7c-3.2-10.7-13.1-18.5-24.9-18.5
			c-11.8,0-21.7,7.9-24.9,18.6c-1.8-0.6-3.7-0.9-5.7-0.9c-10.5,0-19,8.5-19,19c0,10.5,8.5,19,19,19h65.2v-0.6
			C488.1,220,494.2,212.6,494.2,203.7z"/>
		<path id="XMLID_785_" class="st38" d="M128.2,201c0-10.5-8.5-19-19-19c-1.8,0-3.5,0.3-5.1,0.7c-3.2-10.7-13.1-18.5-24.9-18.5
			c-11.8,0-21.7,7.9-24.9,18.6c-1.8-0.6-3.7-0.9-5.7-0.9c-10.5,0-19,8.5-19,19c0,10.5,8.5,19,19,19h65.2v-0.6
			C122.1,217.4,128.2,210,128.2,201z"/>
	</g>
</g>
</svg>
